<?xml version="1.0" encoding="UTF-8" standalone="no"?>
<svg
   xmlns:dc="http://purl.org/dc/elements/1.1/"
   xmlns:cc="http://creativecommons.org/ns#"
   xmlns:rdf="http://www.w3.org/1999/02/22-rdf-syntax-ns#"
   xmlns:svg="http://www.w3.org/2000/svg"
   xmlns="http://www.w3.org/2000/svg"
   viewBox="0 0 793.70135 1122.52"
   height="1122.52"
   width="793.70135"
   xml:space="preserve"
   id="svg2"
   version="1.1"><metadata
     id="metadata8"><rdf:RDF><cc:Work
         rdf:about=""><dc:format>image/svg+xml</dc:format><dc:type
           rdf:resource="http://purl.org/dc/dcmitype/StillImage" /></cc:Work></rdf:RDF></metadata><defs
     id="defs6"><clipPath
       id="clipPath18"
       clipPathUnits="userSpaceOnUse"><path
         id="path16"
         d="M 0,841.89 H 595.276 V 0 H 0 Z" /></clipPath></defs><g
     transform="matrix(1.3333333,0,0,-1.3333333,0,1122.52)"
     id="g10"><g
       id="g12"><g
         clip-path="url(#clipPath18)"
         id="g14"><g
           transform="translate(389.2959,680.1074)"
           id="g20"><path
             id="path22"
             style="fill:#ffffff;fill-opacity:1;fill-rule:nonzero;stroke:none"
             d="M 0,0 -12.331,0.217 C -1.37,15.611 9.014,33.804 29.902,35.03 17.803,26.894 8.394,12.902 0,0 M -15.932,3.055 C -28.23,3.031 -37.376,0.77 -36.23,13.641 -3.352,8.254 -48.59,45.795 -40.597,3.055 -52.899,2.563 -61.123,5.186 -61.112,14.076 c 0.35,10.65 15.219,22.729 27.938,23.137 0.845,0.027 1.684,-0.027 2.509,-0.109 9.954,-0.967 29.232,-14.696 14.733,-34.049 m -117.423,0 c 7.989,42.74 -37.249,5.199 -4.367,10.586 1.143,-12.871 -8.004,-10.61 -20.299,-10.586 -14.503,19.353 4.78,33.082 14.734,34.049 0.822,0.08 1.66,0.138 2.509,0.109 12.715,-0.408 27.584,-12.487 27.938,-23.137 0.011,-8.89 -8.215,-11.513 -20.515,-11.021 M -173.953,0 c -8.397,12.902 -17.802,26.894 -29.902,35.03 20.885,-1.226 31.27,-19.419 42.233,-34.813 z M 31.539,47.362 12.77,43.651 7.421,59.912 C 3.414,48.3 2.523,36.711 -6.221,25.1 c -1.094,7.188 -33.413,41.075 -63.077,-10.586 -4.892,-0.752 -9.334,-0.451 -11.894,4.038 v 71.807 c 0.184,5.822 -2.018,9.258 -5.02,9.713 -0.082,0.013 -0.137,0.1 -0.219,0.109 -0.187,0.017 -0.372,0.013 -0.546,0 -0.176,0.013 -0.361,0.017 -0.544,0 -3.128,-0.297 -5.433,-3.842 -5.24,-9.822 V 18.552 c -2.56,-4.489 -7.005,-4.79 -11.893,-4.038 -29.668,51.661 -61.987,17.774 -63.079,10.586 -8.746,11.611 -9.637,23.2 -13.64,34.812 l -5.349,-16.261 -18.77,3.711 c -28.466,1.192 -26.76,-24.536 -21.389,-29.793 10.974,15.911 22.484,10.835 34.048,-1.309 V -2.619 l 1.321,-2.047 c 10.632,-2.779 21.474,-2.306 32.625,-2.269 1.147,0.004 2.085,-0.313 2.824,-0.83 0.053,-0.001 0.106,-0.002 0.16,-0.002 1.486,0.88 2.957,1.759 4.448,2.322 5.128,1.938 10.464,2.546 15.854,3.338 1.606,0.236 2.967,-0.223 4.014,-1.04 3.414,0.874 6.822,1.766 10.331,2.199 3.251,1.735 6.446,3.67 9.861,4.722 0.209,0.064 0.421,0.12 0.632,0.18 3.427,1.806 6.97,3.453 10.688,4.323 0.259,0.438 0.604,0.864 1.068,1.264 3.54,3.05 9.027,3.409 13.36,1.523 5.082,0.852 10.123,-2.621 15.11,-5.22 8.798,-4.585 20.318,-2.306 29.797,-5.031 2.519,-0.724 3.575,-2.753 3.522,-4.784 0.108,-0.052 0.218,-0.092 0.325,-0.143 2.578,-0.8 5.17,-1.575 7.834,-2.165 5.354,-1.186 10.766,-1.652 16.203,-1.937 9.512,1.692 19.592,3.261 28.995,1.349 l 2.741,4.248 V 16.26 c 11.561,12.144 23.071,17.22 34.049,1.309 5.368,5.257 7.076,30.985 -21.39,29.793" /></g><g
           transform="translate(301.3379,798.6221)"
           id="g24"><path
             id="path26"
             style="fill:#ffffff;fill-opacity:1;fill-rule:nonzero;stroke:none"
             d="m 0,0 v -0.109 c -15.797,-0.551 -33.309,-16.694 -29.139,-31.102 -40.651,-6.977 -22.654,-46.509 -3.71,-45.507 11.763,-0.476 18.894,3.166 19.644,10.585 1.347,6.664 -7.551,9.21 -9.712,3.055 -4.822,-15.414 -22.39,-1.935 -22.045,8.84 0.27,8.528 10.143,20.941 23.572,9.277 5.699,-4.314 9.818,4.155 5.02,6.22 -15.957,17.256 4.26,29.886 17.025,31.757 12.757,-1.818 33.13,-14.455 17.133,-31.757 -4.802,-2.065 -0.683,-10.534 5.02,-6.22 13.426,11.664 23.299,-0.749 23.572,-9.277 0.341,-10.775 -17.226,-24.254 -22.045,-8.84 -2.164,6.155 -10.952,3.609 -9.604,-3.055 0.748,-7.419 7.883,-11.061 19.645,-10.585 18.941,-1.002 36.827,38.53 -3.82,45.507 C 34.724,-16.803 17.211,-0.66 1.418,-0.109 V 0 C 1.166,0.007 0.907,0.001 0.655,0 0.437,0 0.214,0.007 0,0" /></g><g
           transform="translate(476.0254,689.8193)"
           id="g28"><path
             id="path30"
             style="fill:#ffffff;fill-opacity:1;fill-rule:nonzero;stroke:none"
             d="m 0,0 c -7.228,15.658 -24.563,-2.176 -36.015,-2.837 -44.319,-13.953 -93.66,-6.892 -133.574,14.404 -0.563,-0.16 -1.235,-0.107 -1.965,0 -0.732,-0.107 -1.405,-0.16 -1.964,0 -39.918,-21.296 -89.258,-28.357 -133.576,-14.404 -11.454,0.661 -28.789,18.495 -36.012,2.837 9.078,-30.006 18.473,-60.94 16.042,-93.197 -0.29,-63.28 -22.3,-129.065 -1.855,-190.977 12.71,-33.395 38.74,-54.803 68.172,-72.374 1.168,0.497 2.343,0.976 3.525,1.435 1.039,1.225 2.317,2.24 3.931,2.942 1.416,0.616 2.841,1.007 4.327,1.321 -7.558,4.442 -15.311,9.055 -23.208,13.748 -26.129,20.674 -49.259,50.637 -50.745,72.135 -15.166,84.683 26.971,154.092 -8.512,259.402 43.962,-23.664 115.05,-17.84 159.875,4.255 44.823,-22.095 115.91,-27.919 159.876,-4.255 -34.604,-89.434 9.297,-201.979 -8.512,-259.402 -1.49,-21.498 -24.51,-51.461 -50.637,-72.135 -5.484,-3.258 -10.903,-6.481 -16.236,-9.633 3.75,-1.705 7.309,-3.962 10.402,-6.33 27.062,16.926 50.59,37.669 62.473,68.891 20.442,61.912 -1.569,127.697 -1.855,190.977 C -18.478,-60.94 -9.082,-30.006 0,0" /></g><g
           transform="translate(404.9463,542.292)"
           id="g32"><path
             id="path34"
             style="fill:#ffffff;fill-opacity:1;fill-rule:nonzero;stroke:none"
             d="M 0,0 C 0,-32.757 -78.573,-32.757 -78.573,0 V 76.726 H 0 Z m -61.61,-132.704 c 0,-32.756 -78.575,-32.756 -78.575,0 v 76.725 H -61.61 Z M -201.795,0 v 76.726 h 78.574 V 0 c 0,-32.757 -78.574,-32.757 -78.574,0 m 244.39,125.92 c -60.754,-15.948 -111.599,-4.724 -142.415,10.039 -0.082,0.109 -0.139,0.221 -0.219,0.327 -0.071,-0.035 -0.149,-0.074 -0.217,-0.109 -0.071,0.037 -0.15,0.076 -0.219,0.109 -0.081,-0.106 -0.139,-0.219 -0.217,-0.327 -30.817,-14.763 -81.664,-25.987 -142.415,-10.039 20.707,-64.023 -2.569,-140.213 0.218,-206.801 0.033,-83.285 47.762,-100.151 111.081,-132.398 0.507,1.001 15.997,20.441 15.924,21.296 2.3,0.722 19.139,3.3 25.438,-3.586 7.461,-8.156 3.469,-26.817 3.774,-27.189 72.08,39.16 129.013,50.833 129.048,141.877 2.783,66.588 -20.491,142.778 0.219,206.801" /></g><g
           transform="translate(306.9814,419.9424)"
           id="g36"><path
             id="path38"
             style="fill:#ffffff;fill-opacity:1;fill-rule:nonzero;stroke:none"
             d="M 0,0 14.843,-0.219 14.624,-13.86 H -0.654 Z M -20.953,0 -6.11,-0.219 -6.329,-13.86 H -21.607 Z M 0.437,20.952 H 13.642 V 6.657 H 0.218 Z m -20.954,0 H -7.312 V 6.657 H -20.734 Z M 0,42.124 13.423,41.905 13.859,27.392 H 0.218 Z m -20.953,0 13.423,-0.219 0.436,-14.513 h -13.64 z m -6.766,31.211 V 48.345 L -52.272,49 v -7.095 h 24.117 l 0.436,-14.295 h -24.553 v -7.313 l 24.553,0.655 -0.218,-14.295 -24.335,-0.655 v -6.657 l 24.335,0.436 v -14.513 l -24.335,-0.219 v -6.439 l 24.553,0.437 -0.436,-20.625 7.421,0.435 0.436,20.626 13.204,0.219 -0.218,-21.935 8.404,0.436 -0.874,21.499 13.86,-0.219 v -18.006 l 7.093,-0.873 0.219,18.661 18.753,0.218 v 5.566 H 20.954 L 21.39,-0.219 H 40.143 V 6.657 L 20.954,6.874 21.171,21.39 h 18.972 v 6.438 l -19.626,0.654 v 13.642 l 19.626,-0.219 v 7.312 H 20.517 l 0.218,24.118 H 13.642 L 14.296,49 -0.436,48.781 0,73.335 H -7.094 L -6.11,48.781 h -14.624 l -0.873,24.554 z" /></g><g
           transform="translate(368.5928,552.6426)"
           id="g40"><path
             id="path42"
             style="fill:#ffffff;fill-opacity:1;fill-rule:nonzero;stroke:none"
             d="M 0,0 14.842,-0.218 14.623,-13.859 H -0.655 Z M -20.952,0 -6.111,-0.218 -6.33,-13.859 H -21.607 Z M 0.436,20.953 H 13.642 V 6.656 H 0.219 Z m -20.954,0 H -7.313 V 6.656 H -20.735 Z M 0,42.125 13.423,41.906 13.858,27.393 H 0.219 Z m -20.952,0 13.423,-0.219 0.435,-14.513 h -13.641 z m -6.768,31.211 v -24.99 l -24.553,0.653 v -7.093 h 24.117 L -27.72,27.609 H -52.273 V 20.298 L -27.72,20.953 -27.938,6.656 -52.273,6.003 v -6.658 l 24.335,0.437 v -14.515 l -24.335,-0.217 v -6.44 l 24.553,0.438 -0.436,-20.627 7.421,0.436 0.436,20.626 13.205,0.218 -0.219,-21.934 8.404,0.435 -0.872,21.499 13.858,-0.218 v -18.005 l 7.095,-0.874 0.218,18.662 18.754,0.217 v 5.567 H 20.953 L 21.39,-0.218 H 40.144 V 6.656 L 20.953,6.875 21.172,21.39 h 18.972 v 6.438 l -19.627,0.655 v 13.642 l 19.627,-0.219 v 7.312 H 20.517 l 0.217,24.118 H 13.642 L 14.296,48.999 -0.437,48.781 0,73.336 h -7.094 l 0.983,-24.555 h -14.624 l -0.872,24.555 z" /></g><g
           transform="translate(245.3682,552.6426)"
           id="g44"><path
             id="path46"
             style="fill:#ffffff;fill-opacity:1;fill-rule:nonzero;stroke:none"
             d="M 0,0 14.841,-0.218 14.623,-13.859 H -0.655 Z M -20.954,0 -6.111,-0.218 -6.33,-13.859 H -21.608 Z M 0.436,20.953 H 13.64 V 6.656 H 0.217 Z m -20.954,0 H -7.313 V 6.656 H -20.736 Z M 0,42.125 13.423,41.906 13.858,27.393 H 0.217 Z m -20.954,0 13.423,-0.219 0.436,-14.513 h -13.641 z m -6.766,31.211 v -24.99 l -24.554,0.653 v -7.093 h 24.117 L -27.72,27.609 H -52.274 V 20.298 L -27.72,20.953 -27.938,6.656 -52.274,6.003 v -6.658 l 24.336,0.437 v -14.515 l -24.336,-0.217 v -6.44 l 24.554,0.438 -0.437,-20.627 7.421,0.436 0.437,20.626 13.204,0.218 -0.218,-21.934 8.404,0.435 -0.874,21.499 13.86,-0.218 v -18.005 l 7.094,-0.874 0.218,18.662 18.757,0.217 v 5.567 H 20.953 l 0.436,14.732 H 40.146 V 6.656 L 20.953,6.875 21.171,21.39 h 18.975 v 6.438 l -19.63,0.655 v 13.642 l 19.63,-0.219 v 7.312 h -19.63 l 0.218,24.118 H 13.64 L 14.295,48.999 -0.437,48.781 0,73.336 h -7.095 l 0.984,-24.555 h -14.625 l -0.872,24.555 z" /></g><text
           id="text50"
           style="font-variant:normal;font-weight:bold;font-stretch:normal;font-size:46.00003433px;font-family:'Script MT Bold';-inkscape-font-specification:ScriptMTBold;writing-mode:lr-tb;fill:#ffffff;fill-opacity:1;fill-rule:nonzero;stroke:none"
           transform="matrix(0.91790804,0.39679319,0.39679319,-0.91790804,136.9419,127.0225)"><tspan
             id="tspan48"
             y="0"
             x="0">H</tspan></text>
<text
           id="text54"
           style="font-variant:normal;font-weight:bold;font-stretch:normal;font-size:46.00000381px;font-family:'Script MT Bold';-inkscape-font-specification:ScriptMTBold;writing-mode:lr-tb;fill:#ffffff;fill-opacity:1;fill-rule:nonzero;stroke:none"
           transform="matrix(0.94971731,0.31310867,0.31310867,-0.94971731,174.4312,142.8184)"><tspan
             id="tspan52"
             y="0"
             x="0">a</tspan></text>
<text
           id="text58"
           style="font-variant:normal;font-weight:bold;font-stretch:normal;font-size:46px;font-family:'Script MT Bold';-inkscape-font-specification:ScriptMTBold;writing-mode:lr-tb;fill:#ffffff;fill-opacity:1;fill-rule:nonzero;stroke:none"
           transform="matrix(0.96581084,0.25924782,0.25924782,-0.96581084,197.23,150.2285)"><tspan
             id="tspan56"
             y="0"
             x="0">e</tspan></text>
<text
           id="text62"
           style="font-variant:normal;font-weight:bold;font-stretch:normal;font-size:45.99995422px;font-family:'Script MT Bold';-inkscape-font-specification:ScriptMTBold;writing-mode:lr-tb;fill:#ffffff;fill-opacity:1;fill-rule:nonzero;stroke:none"
           transform="matrix(0.97674447,0.21440674,0.21440674,-0.97674447,213.4624,154.585)"><tspan
             id="tspan60"
             y="0"
             x="0">r</tspan></text>
<text
           id="text66"
           style="font-variant:normal;font-weight:bold;font-stretch:normal;font-size:46.00002289px;font-family:'Script MT Bold';-inkscape-font-specification:ScriptMTBold;writing-mode:lr-tb;fill:#ffffff;fill-opacity:1;fill-rule:nonzero;stroke:none"
           transform="matrix(0.98512997,0.17181079,0.17181079,-0.98512997,229.8994,158.1699)"><tspan
             id="tspan64"
             y="0"
             x="0">l</tspan></text>
<text
           id="text70"
           style="font-variant:normal;font-weight:bold;font-stretch:normal;font-size:45.99998093px;font-family:'Script MT Bold';-inkscape-font-specification:ScriptMTBold;writing-mode:lr-tb;fill:#ffffff;fill-opacity:1;fill-rule:nonzero;stroke:none"
           transform="matrix(0.99162648,0.12913918,0.12913918,-0.99162648,244.5234,160.7422)"><tspan
             id="tspan68"
             y="0"
             x="0">e</tspan></text>
<text
           id="text74"
           style="font-variant:normal;font-weight:bold;font-stretch:normal;font-size:45.99999619px;font-family:'Script MT Bold';-inkscape-font-specification:ScriptMTBold;writing-mode:lr-tb;fill:#ffffff;fill-opacity:1;fill-rule:nonzero;stroke:none"
           transform="matrix(0.99810226,0.06157827,0.06157827,-0.99810226,261.1719,163.1885)"><tspan
             id="tspan72"
             y="0"
             x="0">m</tspan></text>
<text
           id="text78"
           style="font-variant:normal;font-weight:bold;font-stretch:normal;font-size:45.99999619px;font-family:'Script MT Bold';-inkscape-font-specification:ScriptMTBold;writing-mode:lr-tb;fill:#ffffff;fill-opacity:1;fill-rule:nonzero;stroke:none"
           transform="matrix(0.99996313,-0.00858696,-0.00858696,-0.99996313,294.2241,164.9727)"><tspan
             id="tspan76"
             y="0"
             x="0">s</tspan></text>
<text
           id="text82"
           style="font-variant:normal;font-weight:bold;font-stretch:normal;font-size:45.99995422px;font-family:'Script MT Bold';-inkscape-font-specification:ScriptMTBold;writing-mode:lr-tb;fill:#ffffff;fill-opacity:1;fill-rule:nonzero;stroke:none"
           transform="matrix(0.99500969,-0.09977836,-0.09977836,-0.99500969,324.3799,164.3535)"><tspan
             id="tspan80"
             y="0"
             x="0">S</tspan></text>
<text
           id="text86"
           style="font-variant:normal;font-weight:bold;font-stretch:normal;font-size:46.00004959px;font-family:'Script MT Bold';-inkscape-font-specification:ScriptMTBold;writing-mode:lr-tb;fill:#ffffff;fill-opacity:1;fill-rule:nonzero;stroke:none"
           transform="matrix(0.98840324,-0.151852,-0.151852,-0.98840324,350.1475,161.5977)"><tspan
             id="tspan84"
             y="0"
             x="0">t</tspan></text>
<text
           id="text90"
           style="font-variant:normal;font-weight:bold;font-stretch:normal;font-size:46.00002289px;font-family:'Script MT Bold';-inkscape-font-specification:ScriptMTBold;writing-mode:lr-tb;fill:#ffffff;fill-opacity:1;fill-rule:nonzero;stroke:none"
           transform="matrix(0.97962559,-0.20083251,-0.20083251,-0.97962559,362.916,159.7754)"><tspan
             id="tspan88"
             y="0"
             x="0">u</tspan></text>
<text
           id="text94"
           style="font-variant:normal;font-weight:bold;font-stretch:normal;font-size:45.99999619px;font-family:'Script MT Bold';-inkscape-font-specification:ScriptMTBold;writing-mode:lr-tb;fill:#ffffff;fill-opacity:1;fill-rule:nonzero;stroke:none"
           transform="matrix(0.96456966,-0.26382829,-0.26382829,-0.96456966,386.4033,154.9609)"><tspan
             id="tspan92"
             y="0"
             x="0">d</tspan></text>
<text
           id="text98"
           style="font-variant:normal;font-weight:bold;font-stretch:normal;font-size:46.00001144px;font-family:'Script MT Bold';-inkscape-font-specification:ScriptMTBold;writing-mode:lr-tb;fill:#ffffff;fill-opacity:1;fill-rule:nonzero;stroke:none"
           transform="matrix(0.94854756,-0.31663469,-0.31663469,-0.94854756,409.5186,148.5352)"><tspan
             id="tspan96"
             y="0"
             x="0">e</tspan></text>
<text
           id="text102"
           style="font-variant:normal;font-weight:bold;font-stretch:normal;font-size:46.00001907px;font-family:'Script MT Bold';-inkscape-font-specification:ScriptMTBold;writing-mode:lr-tb;fill:#ffffff;fill-opacity:1;fill-rule:nonzero;stroke:none"
           transform="matrix(0.93061918,-0.36598898,-0.36598898,-0.93061918,425.4844,143.2773)"><tspan
             id="tspan100"
             y="0"
             x="0">n</tspan></text>
<text
           id="text106"
           style="font-variant:normal;font-weight:bold;font-stretch:normal;font-size:46.00001526px;font-family:'Script MT Bold';-inkscape-font-specification:ScriptMTBold;writing-mode:lr-tb;fill:#ffffff;fill-opacity:1;fill-rule:nonzero;stroke:none"
           transform="matrix(0.9122975,-0.40952811,-0.40952811,-0.9122975,445.9492,135.1133)"><tspan
             id="tspan104"
             y="0"
             x="0">t</tspan></text>
<text
           id="text110"
           style="font-variant:normal;font-weight:bold;font-stretch:normal;font-size:46.00004959px;font-family:'Script MT Bold';-inkscape-font-specification:ScriptMTBold;writing-mode:lr-tb;fill:#ffffff;fill-opacity:1;fill-rule:nonzero;stroke:none"
           transform="matrix(0.8951534,-0.44575822,-0.44575822,-0.8951534,457.7295,129.8682)"><tspan
             id="tspan108"
             y="0"
             x="0">e</tspan></text>
<text
           id="text114"
           style="font-variant:normal;font-weight:bold;font-stretch:normal;font-size:45.9999733px;font-family:'Script MT Bold';-inkscape-font-specification:ScriptMTBold;writing-mode:lr-tb;fill:#ffffff;fill-opacity:1;fill-rule:nonzero;stroke:none"
           transform="matrix(0.8705766,-0.4920329,-0.4920329,-0.8705766,472.8145,122.4326)"><tspan
             id="tspan112"
             y="0"
             x="0">n</tspan></text>
<text
           id="text118"
           style="font-variant:normal;font-weight:normal;font-stretch:normal;font-size:92px;font-family:'Mongolian Baiti';-inkscape-font-specification:MongolianBaiti;writing-mode:lr-tb;fill:#ffffff;fill-opacity:1;fill-rule:nonzero;stroke:none"
           transform="matrix(1,0,0,-1,211.4395,84.8896)"><tspan
             id="tspan116"
             y="0"
             x="0 66.424004 92 117.576 163.576">Gildt</tspan></text>
<g
           transform="translate(309.5088,267.9238)"
           id="g120"><path
             id="path122"
             style="fill:#ffffff;fill-opacity:1;fill-rule:nonzero;stroke:none"
             d="m 0,0 c -52.696,-0.321 -47.885,-10.709 -81.084,-6.875 3.554,-12.843 23.572,-23.478 59.585,-4.038 l 9.386,0.328 c -11.664,-5.819 -29.142,-19.187 -20.626,-37.433 8.008,4.413 15.292,3.595 16.589,10.586 3.712,17.315 9.213,23.422 16.15,24.009 6.933,-0.587 12.547,-6.694 16.261,-24.009 1.296,-6.991 8.467,-6.173 16.478,-10.586 8.515,18.246 -8.853,31.614 -20.516,37.433 l 9.384,-0.328 c 36.011,-19.44 55.919,-8.805 59.477,4.038 C 47.881,-10.709 52.695,-0.321 0,0" /></g><g
           transform="translate(411.123,281.9199)"
           id="g124"><path
             id="path126"
             style="fill:#ffffff;fill-opacity:1;fill-rule:nonzero;stroke:none"
             d="m 0,0 c -3.79,0 -6.862,3.141 -6.862,7.015 0,3.877 3.072,7.015 6.862,7.015 3.788,0 6.857,-3.138 6.857,-7.015 C 6.857,3.141 3.788,0 0,0 m -21.827,47.394 c 3.973,18.404 -20.983,-4.135 -17.15,-23.7 4.624,-13.34 12.624,0.204 10.603,3.744 -3.626,1.791 -2.678,4.216 -0.314,7.169 5.644,4.25 13.293,3.446 13.41,-6.546 0.17,-10.797 -4.026,-17.045 -12.786,-17.773 -13.249,0.509 -21.471,2.177 -22.76,25.258 1.624,24.308 22.49,33.993 39.287,19.333 6.824,-7.593 -9.113,-14.856 -10.29,-7.485 M -75.27,16.774 c -3.789,0 -6.861,3.141 -6.861,7.015 0,3.875 3.072,7.016 6.861,7.016 3.79,0 6.859,-3.141 6.859,-7.016 0,-3.874 -3.069,-7.015 -6.859,-7.015 m -51.635,4.738 c -4.256,6.649 2.969,13.038 5.924,9.669 9.317,-11.968 19.241,-3.858 15.278,0.624 -9.184,8.71 -21.632,11.266 -23.386,23.694 0.155,4.553 4.186,16.608 28.375,11.538 8.066,-2.998 -1.48,-15.814 -4.989,-10.29 -4.45,9.655 -13.843,3.439 -11.848,-0.624 10.153,-8.474 21.905,-11.414 24.008,-24.632 -1.285,-15.664 -20.331,-17.526 -33.362,-9.979 m -18.709,-9.352 c -3.785,0 -6.859,3.142 -6.859,7.016 0,3.874 3.074,7.014 6.859,7.014 3.789,0 6.861,-3.14 6.861,-7.014 0,-3.874 -3.072,-7.016 -6.861,-7.016 m -29.933,-5.299 -7.168,20.264 -8.73,-3.431 6.858,-20.263 -14.655,-6.238 -16.213,46.772 14.965,5.301 6.862,-19.023 8.106,3.744 -6.547,18.081 15.589,5.927 15.902,-45.523 z M 58.388,35.706 c -103.74,64.114 -210.516,61.39 -316.604,0.883 -29.523,-20.447 -2.203,-97.548 44.095,-65.809 87.778,57.368 163.235,40.809 234.651,0 41.374,-24.196 58.51,48.556 37.858,64.926" /></g><g
           transform="translate(411.123,281.9199)"
           id="g128"><path
             id="path130"
             style="fill:none;stroke:#ffffff;stroke-width:1;stroke-linecap:round;stroke-linejoin:round;stroke-miterlimit:4;stroke-dasharray:none;stroke-opacity:1"
             d="m 0,0 c -3.79,0 -6.862,3.141 -6.862,7.015 0,3.877 3.072,7.015 6.862,7.015 3.788,0 6.857,-3.138 6.857,-7.015 C 6.857,3.141 3.788,0 0,0 Z m -21.827,47.394 c 3.973,18.404 -20.983,-4.135 -17.15,-23.7 4.624,-13.34 12.624,0.204 10.603,3.744 -3.626,1.791 -2.678,4.216 -0.314,7.169 5.644,4.25 13.293,3.446 13.41,-6.546 0.17,-10.797 -4.026,-17.045 -12.786,-17.773 -13.249,0.509 -21.471,2.177 -22.76,25.258 1.624,24.308 22.49,33.993 39.287,19.333 6.824,-7.593 -9.113,-14.856 -10.29,-7.485 z M -75.27,16.774 c -3.789,0 -6.861,3.141 -6.861,7.015 0,3.875 3.072,7.016 6.861,7.016 3.79,0 6.859,-3.141 6.859,-7.016 0,-3.874 -3.069,-7.015 -6.859,-7.015 z m -51.635,4.738 c -4.256,6.649 2.969,13.038 5.924,9.669 9.317,-11.968 19.241,-3.858 15.278,0.624 -9.184,8.71 -21.632,11.266 -23.386,23.694 0.155,4.553 4.186,16.608 28.375,11.538 8.066,-2.998 -1.48,-15.814 -4.989,-10.29 -4.45,9.655 -13.843,3.439 -11.848,-0.624 10.153,-8.474 21.905,-11.414 24.008,-24.632 -1.285,-15.664 -20.331,-17.526 -33.362,-9.979 z m -18.709,-9.352 c -3.785,0 -6.859,3.142 -6.859,7.016 0,3.874 3.074,7.014 6.859,7.014 3.789,0 6.861,-3.14 6.861,-7.014 0,-3.874 -3.072,-7.016 -6.861,-7.016 z m -29.933,-5.299 -7.168,20.264 -8.73,-3.431 6.858,-20.263 -14.655,-6.238 -16.213,46.772 14.965,5.301 6.862,-19.023 8.106,3.744 -6.547,18.081 15.589,5.927 15.902,-45.523 z M 58.388,35.706 c -103.74,64.114 -210.516,61.39 -316.604,0.883 -29.523,-20.447 -2.203,-97.548 44.095,-65.809 87.778,57.368 163.235,40.809 234.651,0 41.374,-24.196 58.51,48.556 37.858,64.926 z" /></g></g></g></g></svg>